<svg width="20" height="14" viewBox="0 0 20 14" fill="none" xmlns="http://www.w3.org/2000/svg">
<path fill-rule="evenodd" clip-rule="evenodd" d="M1.11111 14H18.8889C19.5 14 20 13.475 20 12.8333C20 12.1917 19.5 11.6667 18.8889 11.6667H1.11111C0.5 11.6667 0 12.1917 0 12.8333C0 13.475 0.5 14 1.11111 14ZM1.11111 8.16667H18.8889C19.5 8.16667 20 7.64167 20 7C20 6.35833 19.5 5.83333 18.8889 5.83333H1.11111C0.5 5.83333 0 6.35833 0 7C0 7.64167 0.5 8.16667 1.11111 8.16667ZM0 1.16667C0 1.80833 0.5 2.33333 1.11111 2.33333H18.8889C19.5 2.33333 20 1.80833 20 1.16667C20 0.525 19.5 0 18.8889 0H1.11111C0.5 0 0 0.525 0 1.16667Z" fill="white" fill-opacity="0.7"/>
</svg>
