<svg width="20" height="14" viewBox="0 0 20 14" fill="none" xmlns="http://www.w3.org/2000/svg">
<path d="M5.5022 3.68514H15.7994V3.04146C15.7994 2.51022 15.3643 2.07594 14.8339 2.07594H10.5839V1.51378C10.5839 0.713895 9.93332 0.065918 9.13602 0.065918H6.66427C6.27805 0.065918 5.91503 0.216951 5.64038 0.491603C5.36573 0.766255 5.21553 1.12669 5.21553 1.51378V2.07677H0.96552C0.434279 2.07594 0 2.51018 0 3.04146V11.6643L3.24589 5.0884C3.63983 4.2876 4.61136 3.68514 5.5022 3.68514ZM6.18109 1.51378C6.18109 1.3859 6.23345 1.26487 6.32357 1.17392C6.41369 1.08121 6.53555 1.0306 6.66343 1.0306H9.13518C9.40211 1.0306 9.61752 1.24689 9.61752 1.51378V2.07677H6.18113V1.51378H6.18109Z" fill="white" fill-opacity="0.7"/>
<path d="M19.3715 4.64893H5.50221C4.97181 4.64893 4.34444 5.03856 4.11184 5.51402L0.381935 13.07C0.146791 13.5446 0.389653 13.9343 0.920059 13.9343H14.7893C15.3197 13.9343 15.948 13.5455 16.1814 13.07L19.9105 5.51402C20.1447 5.03856 19.9036 4.64893 19.3715 4.64893Z" fill="white" fill-opacity="0.7"/>
</svg>
